<svg xmlns="http://www.w3.org/2000/svg" version="1.1" xmlns:xlink="http://www.w3.org/1999/xlink" width="32" height="32"><svg width="32" height="32" viewBox="0 0 32 32" xmlns="http://www.w3.org/2000/svg">
  <!-- Background circle with gradient -->
  <defs>
    <linearGradient id="SvgjsLinearGradient1003" x1="0%" y1="0%" x2="100%" y2="100%">
      <stop offset="0%" style="stop-color:#2563eb;stop-opacity:1"></stop>
      <stop offset="100%" style="stop-color:#1d4ed8;stop-opacity:1"></stop>
    </linearGradient>
    <linearGradient id="SvgjsLinearGradient1002" x1="0%" y1="0%" x2="100%" y2="100%">
      <stop offset="0%" style="stop-color:#60a5fa;stop-opacity:1"></stop>
      <stop offset="100%" style="stop-color:#3b82f6;stop-opacity:1"></stop>
    </linearGradient>
  </defs>

  <!-- Background -->
  <circle cx="16" cy="16" r="15" fill="url(#bgGradient)" stroke="#1e40af" stroke-width="1"></circle>

  <!-- Network nodes -->
  <circle cx="8" cy="10" r="2.5" fill="url(#nodeGradient)" stroke="#ffffff" stroke-width="0.5"></circle>
  <circle cx="24" cy="10" r="2.5" fill="url(#nodeGradient)" stroke="#ffffff" stroke-width="0.5"></circle>
  <circle cx="8" cy="22" r="2.5" fill="url(#nodeGradient)" stroke="#ffffff" stroke-width="0.5"></circle>
  <circle cx="24" cy="22" r="2.5" fill="url(#nodeGradient)" stroke="#ffffff" stroke-width="0.5"></circle>
  <circle cx="16" cy="16" r="3" fill="#fbbf24" stroke="#ffffff" stroke-width="0.5"></circle>

  <!-- Network connections -->
  <line x1="10.2" y1="11" x2="13.2" y2="14.5" stroke="#ffffff" stroke-width="1.5" opacity="0.8"></line>
  <line x1="21.8" y1="11" x2="18.8" y2="14.5" stroke="#ffffff" stroke-width="1.5" opacity="0.8"></line>
  <line x1="10.2" y1="21" x2="13.2" y2="17.5" stroke="#ffffff" stroke-width="1.5" opacity="0.8"></line>
  <line x1="21.8" y1="21" x2="18.8" y2="17.5" stroke="#ffffff" stroke-width="1.5" opacity="0.8"></line>

  <!-- Automation gear symbol in center -->
  <g transform="translate(16,16)">
    <path d="M-1.5,-3 L-0.5,-3 L0,-2 L0.5,-3 L1.5,-3 L2,-1.5 L3,-0.5 L3,0.5 L2,1.5 L1.5,3 L0.5,3 L0,2 L-0.5,3 L-1.5,3 L-2,1.5 L-3,0.5 L-3,-0.5 L-2,-1.5 Z" fill="#ffffff" opacity="0.9"></path>
    <circle cx="0" cy="0" r="1" fill="#fbbf24"></circle>
  </g>
</svg><style>@media (prefers-color-scheme: light) { :root { filter: none; } }
@media (prefers-color-scheme: dark) { :root { filter: none; } }
</style></svg>